<?xml version="1.0" encoding="UTF-8" standalone="no"?>
<!DOCTYPE svg PUBLIC "-//W3C//DTD SVG 1.1//EN"
 "http://www.w3.org/Graphics/SVG/1.1/DTD/svg11.dtd">
<!-- Generated by graphviz version 2.44.1 (20200629.0846)
 -->
<!-- Pages: 1 -->
<svg width="720pt" height="385pt"
 viewBox="0.00 0.00 720.00 385.19" xmlns="http://www.w3.org/2000/svg" xmlns:xlink="http://www.w3.org/1999/xlink">
<g id="graph0" class="graph" transform="scale(0.78 0.78) rotate(0) translate(4 487.19)">
<polygon fill="white" stroke="transparent" points="-4,4 -4,-487.19 914.12,-487.19 914.12,4 -4,4"/>
<!-- normal distribution -->
<g id="node1" class="node">
<title>normal distribution</title>
<ellipse fill="none" stroke="black" cx="411.25" cy="-110" rx="79.09" ry="18"/>
<text text-anchor="middle" x="411.25" y="-106.3" font-family="Times,serif" font-size="14.00">normal distribution</text>
</g>
<!-- cauchy distribution -->
<g id="node9" class="node">
<title>cauchy distribution</title>
<ellipse fill="none" stroke="black" cx="411.25" cy="-22" rx="78.79" ry="18"/>
<text text-anchor="middle" x="411.25" y="-18.3" font-family="Times,serif" font-size="14.00">cauchy distribution</text>
</g>
<!-- normal distribution&#45;&gt;cauchy distribution -->
<g id="edge21" class="edge">
<title>normal distribution&#45;&gt;cauchy distribution</title>
<path fill="none" stroke="black" d="M405.74,-92.01C404.44,-80.19 404.16,-64.17 404.9,-50.54"/>
<polygon fill="black" stroke="black" points="408.41,-50.49 405.71,-40.25 401.44,-49.94 408.41,-50.49"/>
</g>
<!-- exponential distribution -->
<g id="node2" class="node">
<title>exponential distribution</title>
<ellipse fill="none" stroke="black" cx="721.25" cy="-198" rx="94.78" ry="18"/>
<text text-anchor="middle" x="721.25" y="-194.3" font-family="Times,serif" font-size="14.00">exponential distribution</text>
</g>
<!-- exponential distribution&#45;&gt;normal distribution -->
<g id="edge6" class="edge">
<title>exponential distribution&#45;&gt;normal distribution</title>
<path fill="none" stroke="black" d="M670.06,-182.8C614.78,-167.47 526.92,-143.09 469.16,-127.07"/>
<polygon fill="black" stroke="black" points="470.02,-123.67 459.45,-124.37 468.15,-130.42 470.02,-123.67"/>
</g>
<!-- gamma distribution -->
<g id="node4" class="node">
<title>gamma distribution</title>
<ellipse fill="none" stroke="black" cx="721.25" cy="-286" rx="80.69" ry="18"/>
<text text-anchor="middle" x="721.25" y="-282.3" font-family="Times,serif" font-size="14.00">gamma distribution</text>
</g>
<!-- exponential distribution&#45;&gt;gamma distribution -->
<g id="edge5" class="edge">
<title>exponential distribution&#45;&gt;gamma distribution</title>
<path fill="none" stroke="black" d="M726.78,-216.25C728.07,-228.13 728.33,-244.16 727.58,-257.76"/>
<polygon fill="black" stroke="black" points="724.06,-257.76 726.75,-268.01 731.04,-258.32 724.06,-257.76"/>
</g>
<!-- poisson distribution -->
<g id="node11" class="node">
<title>poisson distribution</title>
<ellipse fill="none" stroke="black" cx="759.25" cy="-110" rx="80.69" ry="18"/>
<text text-anchor="middle" x="759.25" y="-106.3" font-family="Times,serif" font-size="14.00">poisson distribution</text>
</g>
<!-- exponential distribution&#45;&gt;poisson distribution -->
<g id="edge7" class="edge">
<title>exponential distribution&#45;&gt;poisson distribution</title>
<path fill="none" stroke="black" d="M728.75,-180.01C734.11,-167.88 741.43,-151.32 747.55,-137.46"/>
<polygon fill="black" stroke="black" points="750.91,-138.52 751.75,-127.96 744.51,-135.69 750.91,-138.52"/>
</g>
<!-- beta distribution -->
<g id="node3" class="node">
<title>beta distribution</title>
<ellipse fill="none" stroke="black" cx="87.25" cy="-286" rx="68.49" ry="18"/>
<text text-anchor="middle" x="87.25" y="-282.3" font-family="Times,serif" font-size="14.00">beta distribution</text>
</g>
<!-- gamma distribution&#45;&gt;exponential distribution -->
<g id="edge8" class="edge">
<title>gamma distribution&#45;&gt;exponential distribution</title>
<path fill="none" stroke="black" d="M715.74,-268.01C714.44,-256.19 714.16,-240.17 714.9,-226.54"/>
<polygon fill="black" stroke="black" points="718.41,-226.49 715.71,-216.25 711.44,-225.94 718.41,-226.49"/>
</g>
<!-- pearson distribution -->
<g id="node5" class="node">
<title>pearson distribution</title>
<ellipse fill="none" stroke="black" cx="210.25" cy="-461" rx="81.49" ry="18"/>
<text text-anchor="middle" x="210.25" y="-457.3" font-family="Times,serif" font-size="14.00">pearson distribution</text>
</g>
<!-- pearson distribution&#45;&gt;normal distribution -->
<g id="edge26" class="edge">
<title>pearson distribution&#45;&gt;normal distribution</title>
<path fill="none" stroke="black" d="M170.8,-445.13C99.75,-415.98 -38.07,-347.2 10.25,-268 75.58,-160.89 227.57,-126.74 324.53,-115.93"/>
<polygon fill="black" stroke="black" points="325.03,-119.39 334.61,-114.86 324.3,-112.43 325.03,-119.39"/>
</g>
<!-- pearson distribution&#45;&gt;beta distribution -->
<g id="edge22" class="edge">
<title>pearson distribution&#45;&gt;beta distribution</title>
<path fill="none" stroke="black" d="M180.1,-444.21C159.87,-432.16 134.11,-413.77 118.25,-391 102.23,-368.02 94.36,-336.65 90.58,-314.39"/>
<polygon fill="black" stroke="black" points="94,-313.63 89.03,-304.27 87.08,-314.69 94,-313.63"/>
</g>
<!-- pearson distribution&#45;&gt;gamma distribution -->
<g id="edge24" class="edge">
<title>pearson distribution&#45;&gt;gamma distribution</title>
<path fill="none" stroke="black" d="M285.81,-454.38C360.07,-446.82 475.45,-429.55 568.25,-391 593.78,-380.39 654.19,-337 691,-309.73"/>
<polygon fill="black" stroke="black" points="693.43,-312.28 699.37,-303.51 689.26,-306.66 693.43,-312.28"/>
</g>
<!-- metalog distribution -->
<g id="node8" class="node">
<title>metalog distribution</title>
<ellipse fill="none" stroke="black" cx="210.25" cy="-373" rx="82.59" ry="18"/>
<text text-anchor="middle" x="210.25" y="-369.3" font-family="Times,serif" font-size="14.00">metalog distribution</text>
</g>
<!-- pearson distribution&#45;&gt;metalog distribution -->
<g id="edge25" class="edge">
<title>pearson distribution&#45;&gt;metalog distribution</title>
<path fill="none" stroke="black" d="M204.74,-443.01C203.44,-431.19 203.16,-415.17 203.9,-401.54"/>
<polygon fill="black" stroke="black" points="207.41,-401.49 204.71,-391.25 200.44,-400.94 207.41,-401.49"/>
</g>
<!-- pearson distribution&#45;&gt;cauchy distribution -->
<g id="edge23" class="edge">
<title>pearson distribution&#45;&gt;cauchy distribution</title>
<path fill="none" stroke="black" d="M289.89,-457.18C459.42,-450.43 844.1,-430.86 887.25,-391 921.76,-359.12 906.25,-333.99 906.25,-287 906.25,-287 906.25,-287 906.25,-197 906.25,-143.9 892.62,-122.63 849.25,-92 794.06,-53.03 608.65,-35.06 497.53,-27.62"/>
<polygon fill="black" stroke="black" points="497.55,-24.11 487.35,-26.95 497.1,-31.1 497.55,-24.11"/>
</g>
<!-- generalized normal distribution -->
<g id="node6" class="node">
<title>generalized normal distribution</title>
<ellipse fill="none" stroke="black" cx="437.25" cy="-373" rx="122.38" ry="18"/>
<text text-anchor="middle" x="437.25" y="-369.3" font-family="Times,serif" font-size="14.00">generalized normal distribution</text>
</g>
<!-- generalized normal distribution&#45;&gt;normal distribution -->
<g id="edge12" class="edge">
<title>generalized normal distribution&#45;&gt;normal distribution</title>
<path fill="none" stroke="black" d="M440.16,-354.66C443.7,-333.97 449.97,-298.38 456.25,-268 461.04,-244.77 465.56,-239.57 468.25,-216 470.06,-200.1 473.66,-195.06 468.25,-180 462.06,-162.81 449.53,-146.85 437.79,-134.62"/>
<polygon fill="black" stroke="black" points="440.2,-132.08 430.65,-127.51 435.27,-137.05 440.2,-132.08"/>
</g>
<!-- generalized normal distribution&#45;&gt;gamma distribution -->
<g id="edge9" class="edge">
<title>generalized normal distribution&#45;&gt;gamma distribution</title>
<path fill="none" stroke="black" d="M488.68,-356.61C538.53,-341.69 613.95,-319.11 665.29,-303.75"/>
<polygon fill="black" stroke="black" points="666.32,-307.09 674.9,-300.87 664.32,-300.39 666.32,-307.09"/>
</g>
<!-- multivariate normal distribution -->
<g id="node7" class="node">
<title>multivariate normal distribution</title>
<ellipse fill="none" stroke="black" cx="335.25" cy="-198" rx="124.28" ry="18"/>
<text text-anchor="middle" x="335.25" y="-194.3" font-family="Times,serif" font-size="14.00">multivariate normal distribution</text>
</g>
<!-- generalized normal distribution&#45;&gt;multivariate normal distribution -->
<g id="edge11" class="edge">
<title>generalized normal distribution&#45;&gt;multivariate normal distribution</title>
<path fill="none" stroke="black" d="M428.36,-354.84C417.46,-334.04 398.23,-298.03 380.25,-268 371.47,-253.35 361.09,-237.35 352.51,-224.45"/>
<polygon fill="black" stroke="black" points="355.37,-222.43 346.9,-216.07 349.55,-226.32 355.37,-222.43"/>
</g>
<!-- weibull distribution -->
<g id="node10" class="node">
<title>weibull distribution</title>
<ellipse fill="none" stroke="black" cx="291.25" cy="-286" rx="79.89" ry="18"/>
<text text-anchor="middle" x="291.25" y="-282.3" font-family="Times,serif" font-size="14.00">weibull distribution</text>
</g>
<!-- generalized normal distribution&#45;&gt;weibull distribution -->
<g id="edge13" class="edge">
<title>generalized normal distribution&#45;&gt;weibull distribution</title>
<path fill="none" stroke="black" d="M408.75,-355.41C385.54,-341.9 352.63,-322.74 327.54,-308.13"/>
<polygon fill="black" stroke="black" points="329.08,-304.98 318.68,-302.97 325.56,-311.03 329.08,-304.98"/>
</g>
<!-- laplace distribution -->
<g id="node13" class="node">
<title>laplace distribution</title>
<ellipse fill="none" stroke="black" cx="544.25" cy="-286" rx="78.79" ry="18"/>
<text text-anchor="middle" x="544.25" y="-282.3" font-family="Times,serif" font-size="14.00">laplace distribution</text>
</g>
<!-- generalized normal distribution&#45;&gt;laplace distribution -->
<g id="edge10" class="edge">
<title>generalized normal distribution&#45;&gt;laplace distribution</title>
<path fill="none" stroke="black" d="M458.39,-355.21C474.76,-342.2 497.61,-324.05 515.62,-309.74"/>
<polygon fill="black" stroke="black" points="517.86,-312.43 523.51,-303.47 513.51,-306.95 517.86,-312.43"/>
</g>
<!-- multivariate normal distribution&#45;&gt;normal distribution -->
<g id="edge20" class="edge">
<title>multivariate normal distribution&#45;&gt;normal distribution</title>
<path fill="none" stroke="black" d="M350.26,-180.01C361.5,-167.29 377.04,-149.7 389.62,-135.47"/>
<polygon fill="black" stroke="black" points="392.26,-137.77 396.26,-127.96 387.02,-133.13 392.26,-137.77"/>
</g>
<!-- metalog distribution&#45;&gt;normal distribution -->
<g id="edge17" class="edge">
<title>metalog distribution&#45;&gt;normal distribution</title>
<path fill="none" stroke="black" d="M203.14,-354.87C189.36,-318.68 163.64,-233.4 202.25,-180 230.13,-141.42 280.37,-124.05 324.61,-116.38"/>
<polygon fill="black" stroke="black" points="325.2,-119.83 334.53,-114.8 324.1,-112.92 325.2,-119.83"/>
</g>
<!-- metalog distribution&#45;&gt;beta distribution -->
<g id="edge15" class="edge">
<title>metalog distribution&#45;&gt;beta distribution</title>
<path fill="none" stroke="black" d="M186.53,-355.61C167.26,-342.3 139.92,-323.4 118.81,-308.81"/>
<polygon fill="black" stroke="black" points="120.69,-305.86 110.47,-303.05 116.71,-311.61 120.69,-305.86"/>
</g>
<!-- metalog distribution&#45;&gt;gamma distribution -->
<g id="edge16" class="edge">
<title>metalog distribution&#45;&gt;gamma distribution</title>
<path fill="none" stroke="black" d="M271.67,-360.93C283.15,-358.92 295.06,-356.87 306.25,-355 450.9,-330.88 487.76,-329.09 632.25,-304 638.91,-302.84 645.85,-301.59 652.78,-300.32"/>
<polygon fill="black" stroke="black" points="653.7,-303.71 662.89,-298.44 652.42,-296.82 653.7,-303.71"/>
</g>
<!-- metalog distribution&#45;&gt;pearson distribution -->
<g id="edge18" class="edge">
<title>metalog distribution&#45;&gt;pearson distribution</title>
<path fill="none" stroke="black" d="M215.78,-391.25C217.07,-403.13 217.33,-419.16 216.58,-432.76"/>
<polygon fill="black" stroke="black" points="213.06,-432.76 215.75,-443.01 220.04,-433.32 213.06,-432.76"/>
</g>
<!-- metalog distribution&#45;&gt;weibull distribution -->
<g id="edge19" class="edge">
<title>metalog distribution&#45;&gt;weibull distribution</title>
<path fill="none" stroke="black" d="M226.25,-355.21C238.23,-342.63 254.79,-325.25 268.2,-311.18"/>
<polygon fill="black" stroke="black" points="270.91,-313.41 275.28,-303.76 265.84,-308.58 270.91,-313.41"/>
</g>
<!-- cauchy distribution&#45;&gt;normal distribution -->
<g id="edge1" class="edge">
<title>cauchy distribution&#45;&gt;normal distribution</title>
<path fill="none" stroke="black" d="M416.78,-40.25C418.07,-52.13 418.33,-68.16 417.58,-81.76"/>
<polygon fill="black" stroke="black" points="414.06,-81.76 416.75,-92.01 421.04,-82.32 414.06,-81.76"/>
</g>
<!-- compound poisson distribution -->
<g id="node12" class="node">
<title>compound poisson distribution</title>
<ellipse fill="none" stroke="black" cx="758.25" cy="-373" rx="120.48" ry="18"/>
<text text-anchor="middle" x="758.25" y="-369.3" font-family="Times,serif" font-size="14.00">compound poisson distribution</text>
</g>
<!-- compound poisson distribution&#45;&gt;exponential distribution -->
<g id="edge2" class="edge">
<title>compound poisson distribution&#45;&gt;exponential distribution</title>
<path fill="none" stroke="black" d="M777.33,-355.13C798.12,-334.62 826.49,-298.89 811.25,-268 801.21,-247.67 782,-231.67 763.89,-220.21"/>
<polygon fill="black" stroke="black" points="765.51,-217.1 755.13,-214.96 761.9,-223.1 765.51,-217.1"/>
</g>
<!-- compound poisson distribution&#45;&gt;gamma distribution -->
<g id="edge3" class="edge">
<title>compound poisson distribution&#45;&gt;gamma distribution</title>
<path fill="none" stroke="black" d="M750.76,-354.8C745.59,-342.93 738.63,-326.93 732.76,-313.45"/>
<polygon fill="black" stroke="black" points="735.92,-311.95 728.72,-304.18 729.5,-314.74 735.92,-311.95"/>
</g>
<!-- compound poisson distribution&#45;&gt;poisson distribution -->
<g id="edge4" class="edge">
<title>compound poisson distribution&#45;&gt;poisson distribution</title>
<path fill="none" stroke="black" d="M783.35,-355.36C799.21,-343.24 818.35,-325.26 827.25,-304 834.66,-286.29 840.33,-216.4 825.25,-180 817.82,-162.08 803.39,-146.12 789.91,-134.08"/>
<polygon fill="black" stroke="black" points="792.02,-131.28 782.14,-127.46 787.48,-136.61 792.02,-131.28"/>
</g>
<!-- laplace distribution&#45;&gt;exponential distribution -->
<g id="edge14" class="edge">
<title>laplace distribution&#45;&gt;exponential distribution</title>
<path fill="none" stroke="black" d="M576.3,-269.43C605.13,-255.42 647.69,-234.74 679.23,-219.41"/>
<polygon fill="black" stroke="black" points="680.77,-222.56 688.23,-215.04 677.71,-216.26 680.77,-222.56"/>
</g>
</g>
</svg>
